# xmcd
#
# Track frame offsets: 
#        150
#        22884
#        40326
#        64086
#        80394
#        105585
#        126753
#        146706
#        168414
#        190824
#        215718
#        236886
#
# Disc length: 3374 seconds
#
# Revision: 0
# Processed by: cddbd v1.5.2PL0 Copyright (c) Steve Scherf et al.
# Submitted via: ExactAudioCopy v1.0b3
#
DISCID=a80d2c0c
DTITLE=Phuong Dung - Nua Dem Ngoai Pho
DYEAR=1989
DGENRE=
TTITLE0=Con duong xua em di
TTITLE1=Phut dau tien
TTITLE2=Trang tan tren he pho
TTITLE3=Tinh yeu tra lai trang sao
TTITLE4=Nua dem ngoai pho
TTITLE5=Thiep hong anh viet ten em
TTITLE6=Noi buon gac tro
TTITLE7=Duyen kiep
TTITLE8=Nho mot nguoi
TTITLE9=Tinh thu cua linh
TTITLE10=Chuyen do vi tuyen
TTITLE11=Khuc hat an tinh
EXTD=
EXTT0=
EXTT1=
EXTT2=
EXTT3=
EXTT4=
EXTT5=
EXTT6=
EXTT7=
EXTT8=
EXTT9=
EXTT10=
EXTT11=
PLAYORDER=
